<?xml version="1.0" standalone="no"?>
<!DOCTYPE svg PUBLIC "-//W3C//DTD SVG 20010904//EN"
 "http://www.w3.org/TR/2001/REC-SVG-20010904/DTD/svg10.dtd">
<svg version="1.0" xmlns="http://www.w3.org/2000/svg"
 width="150.000000pt" height="33.000000pt" viewBox="0 0 150.000000 33.000000"
 preserveAspectRatio="xMidYMid meet">

<g transform="translate(0.000000,33.000000) scale(0.100000,-0.100000)"
fill="#000000" stroke="none">
<path d="M1373 322 c-37 -4 -38 -7 -19 -40 12 -22 13 -22 27 -6 8 9 27 22 43
29 28 12 28 12 5 16 -13 2 -39 3 -56 1z"/>
<path d="M136 258 c-14 -13 -48 -56 -76 -97 -59 -88 -67 -135 -24 -151 33 -13
245 -13 278 -1 13 6 43 37 66 70 64 95 66 91 -38 91 -83 0 -92 -2 -107 -22
-15 -23 -15 -23 35 -26 54 -3 63 -17 32 -45 -14 -13 -39 -17 -104 -17 -114 0
-120 8 -69 87 21 33 45 65 53 69 7 5 76 11 153 14 132 5 140 6 140 25 0 19 -8
20 -157 23 -150 2 -157 2 -182 -20z"/>
<path d="M536 255 l-16 -25 64 0 c36 0 67 -4 71 -9 3 -5 -26 -54 -65 -109 -38
-54 -70 -102 -70 -106 0 -4 17 -6 37 -4 34 3 42 10 100 93 35 49 70 99 77 110
11 16 28 21 81 25 56 4 70 9 83 28 l14 22 -180 0 -180 0 -16 -25z"/>
<path d="M978 269 c-20 -11 -98 -122 -98 -138 0 -7 44 -11 124 -11 131 0 151
-7 121 -40 -16 -17 -35 -20 -164 -22 -133 -3 -146 -5 -149 -22 -2 -10 2 -22
10 -27 19 -12 279 -11 314 1 30 11 129 141 117 154 -3 3 -66 6 -140 6 -73 0
-133 4 -133 8 0 5 6 17 14 28 13 17 31 20 158 24 135 5 143 6 143 25 0 19 -7
20 -150 22 -89 2 -157 -1 -167 -8z"/>
</g>
</svg>
